<?xml version="1.0" encoding="utf-8"?>
<!-- Generator: Adobe Illustrator 15.1.0, SVG Export Plug-In . SVG Version: 6.00 Build 0)  -->
<!DOCTYPE svg PUBLIC "-//W3C//DTD SVG 1.1//EN" "http://www.w3.org/Graphics/SVG/1.1/DTD/svg11.dtd">
<svg version="1.1" id="Layer_1" xmlns="http://www.w3.org/2000/svg" xmlns:xlink="http://www.w3.org/1999/xlink" x="0px" y="0px"
	 width="1800px" height="656px" viewBox="0 0 1800 656" enable-background="new 0 0 1800 656" xml:space="preserve">
<polygon fill="#9CDAEA" points="436.942,30.591 391.286,106.769 498.753,133.72 "/>
<polygon fill="#1387C1" points="611.699,322.165 546.497,213.378 288.627,278.05 262.187,322.165 "/>
<polygon fill="#58C9E9" points="510.495,153.309 382.612,121.236 300.365,258.463 537.823,198.909 "/>
<path fill="#FFFFFF" d="M17.506,612.453V322.854h103.668c76.807,0,106.186,28.121,106.186,97.793
	c0,71.35-32.317,101.566-105.765,101.566h-30.22v90.24H17.506z M91.375,379.934v85.202h27.281c27.7,0,34.417-12.592,34.417-44.071
	c0-29.799-6.718-41.131-34.417-41.131H91.375z"/>
<path fill="#FFFFFF" d="M435.125,519.277H310.471c0,31.478,7.556,42.812,43.651,42.812c28.539,0,56.241-8.814,63.376-11.334
	l14.689,49.946c-15.529,8.394-50.785,16.785-90.239,16.785c-78.064,0-102.825-33.155-102.825-114.157
	c0-78.066,33.577-115.84,102.407-115.84c65.056,0,94.853,31.898,94.853,103.25C436.382,499.97,436.382,509.205,435.125,519.277
	 M369.65,475.629c0-27.282-7.974-36.518-28.538-36.518c-22.667,0-30.641,8.397-30.641,36.518H369.65z"/>
<path fill="#FFFFFF" d="M639.946,456.319v156.134h-62.533l-0.421-16.369c-17.209,14.271-40.293,21.402-60.44,21.402
	c-41.131,0-64.633-22.661-64.633-70.09c0-38.612,19.306-60.44,54.561-67.153c17.21-3.357,41.97-4.194,62.956-4.194v-6.718
	c0-20.984-10.073-27.28-30.221-27.28c-26.44,0-49.102,5.457-64.634,9.231l-9.652-51.622c23.924-6.714,55.401-12.171,89.399-12.171
	C609.309,387.49,639.946,407.634,639.946,456.319 M540.476,567.125c9.654,0,20.566-3.779,28.96-8.396v-39.869l-21.403,0.418
	c-19.307,0.42-26.023,8.813-26.023,27.281C522.009,563.346,530.404,567.125,540.476,567.125"/>
<polygon fill="#FFFFFF" points="764.184,525.574 745.296,525.574 745.296,612.453 673.106,612.453 673.106,308.164 745.296,301.869 
	745.296,468.074 763.763,468.074 804.897,393.365 881.282,393.365 821.265,491.574 883.8,612.453 804.055,612.453 "/>
<polygon fill="#FFFFFF" points="952.233,322.853 952.233,570.479 1060.517,570.479 1060.517,612.453 903.109,612.453 
	903.109,322.853 "/>
<path fill="#FFFFFF" d="M1257.363,513.82h-126.331c0.42,48.269,9.232,64.637,50.784,64.637c23.922,0,47.006-6.296,62.117-10.914
	l10.491,35.678c-20.145,7.554-45.326,14.266-77.645,14.266c-75.548,0-94.855-35.674-94.855-110.799
	c0-71.351,24.764-115.421,91.079-115.421c60.017,0,84.78,30.64,84.78,92.336C1257.784,493.674,1257.784,503.748,1257.363,513.82
	 M1211.615,480.665c0-37.354-7.136-53.302-38.611-53.302c-29.801,0-40.294,16.366-41.972,53.302H1211.615z"/>
<path fill="#FFFFFF" d="M1460.503,396.304v16.368c0,19.727-2.518,31.475-7.134,45.749l-54.143,154.032h-56.66l-54.146-154.032
	c-5.035-14.274-7.13-26.022-7.13-45.749v-16.368h48.684v16.787c0,12.589,2.1,25.183,6.297,38.192l36.095,121.299l36.517-121.299
	c3.776-13.009,5.874-25.603,5.874-38.192v-16.787H1460.503z"/>
<path fill="#FFFFFF" d="M1657.775,513.82h-126.333c0.422,48.269,9.233,64.637,50.786,64.637c23.921,0,47.006-6.296,62.116-10.914
	l10.493,35.678c-20.146,7.554-45.329,14.266-77.646,14.266c-75.548,0-94.855-35.674-94.855-110.799
	c0-71.351,24.764-115.421,91.079-115.421c60.017,0,84.782,30.64,84.782,92.336C1658.197,493.674,1658.197,503.748,1657.775,513.82
	 M1612.026,480.665c0-37.354-7.134-53.302-38.611-53.302c-29.801,0-40.292,16.366-41.973,53.302H1612.026z"/>
<path fill="#FFFFFF" d="M1744.657,304.807v257.282c0,15.529,8.813,16.368,17.628,16.368c5.874,0,12.589-1.26,16.788-2.519
	l6.297,35.256c-10.074,2.938-23.506,6.292-40.294,6.292c-36.514,0-48.686-15.946-48.686-52.46V309.845L1744.657,304.807z"/>
<rect x="-669.458" y="-575.375" fill="none" width="3096.019" height="1935"/>
</svg>
